<?xml version="1.0" encoding="UTF-8" standalone="no"?>
<svg
   class="svg-icon"
   style="overflow:hidden;fill:currentColor"
   viewBox="0 0 16 16"
   version="1.1"
   id="svg4"
   sodipodi:docname="cat-dog-dog-heart-2.svg"
   width="16"
   height="16"
   inkscape:version="1.1 (c68e22c387, 2021-05-23)"
   xmlns:inkscape="http://www.inkscape.org/namespaces/inkscape"
   xmlns:sodipodi="http://sodipodi.sourceforge.net/DTD/sodipodi-0.dtd"
   xmlns="http://www.w3.org/2000/svg"
   xmlns:svg="http://www.w3.org/2000/svg">
  <defs
     id="defs8" />
  <sodipodi:namedview
     id="namedview6"
     pagecolor="#ffffff"
     bordercolor="#666666"
     borderopacity="1.0"
     inkscape:pageshadow="2"
     inkscape:pageopacity="0.0"
     inkscape:pagecheckerboard="0"
     showgrid="false"
     inkscape:snap-global="false"
     inkscape:zoom="1.015625"
     inkscape:cx="271.75385"
     inkscape:cy="269.29231"
     inkscape:window-width="1366"
     inkscape:window-height="705"
     inkscape:window-x="-8"
     inkscape:window-y="-8"
     inkscape:window-maximized="1"
     inkscape:current-layer="svg4" />
  <path
     id="path869"
     style="fill:#ff0000;fill-rule:evenodd;stroke-width:0.333671"
     inkscape:transform-center-x="-0.38260081"
     inkscape:transform-center-y="-2.0824176"
     d="m 384.31627,164.00623 -17.77778,0.31282 -12.34976,12.79161 0.31347,17.77778 12.79161,12.3491 17.77778,-0.31282 12.34911,-12.79161 -0.31282,-17.77778 z m -15.38343,7.13874 c 0.44285,0.001 1.01365,0.0798 1.73418,0.29327 1.92135,0.56934 2.84641,1.77872 2.91767,1.95641 0.0712,0.17785 -0.10712,0.9964 -0.49855,3.06039 -0.39166,2.0637 -0.46206,3.7714 -0.46206,3.7714 -3.18463,1.63717 -5.08858,-0.0887 -4.60818,-2.86423 0.48043,-2.77549 3.57589,-4.5365 3.57589,-4.5365 0,0 -1.92156,0.53381 -3.20247,2.50841 -1.28097,1.97492 -1.54787,4.59039 0.10688,5.65742 1.65442,1.06799 4.10964,0.0534 4.10964,0.0534 0,0 1.76136,9.39356 4.10963,13.07641 2.34827,3.68258 6.67734,5.13295 8.80645,3.84243 1.76134,-1.06703 1.12125,-3.62874 -0.31999,-4.10963 -1.09301,-0.36423 -2.02809,0.58718 -2.02809,0.58718 0,0 0.0531,-0.48012 0.31998,-0.80029 0.26693,-0.31984 1.60122,-1.54769 3.73621,-0.58718 2.33265,1.04958 3.01283,4.48576 -0.0534,6.29805 -1.17435,0.69329 -4.10963,0.74685 -4.10963,0.74685 l -15.95823,-0.0534 c 0,0 -0.48047,-0.64044 0.0534,-1.33403 0.32522,-0.42256 1.49435,-0.5344 1.49435,-0.5344 0,0 -0.58715,-0.69282 -1.06748,-3.04149 -0.48031,-2.34804 0.42654,-3.62947 2.2412,-3.94997 1.81459,-0.32017 3.84309,0.90782 3.84309,0.90782 0,0 -1.54751,-1.17399 -2.93527,-1.44091 -1.3876,-0.26692 -3.68321,0.15961 -3.94997,2.56119 -0.26692,2.40191 1.06749,4.59059 1.06749,4.59059 0,0 -0.54099,-0.0608 -1.12093,0.4803 -0.80063,0.74717 -0.15966,1.70747 -0.15966,1.70747 h -1.49436 c 0,0 -0.85411,-0.85397 -0.0534,-1.76091 0.65097,-0.73797 1.41386,-0.43247 1.33404,-0.9606 -0.69382,-4.58985 -2.56166,-6.72488 -2.88183,-11.74172 -0.22814,-3.57515 2.63288,-5.05265 2.63288,-5.05265 0,0 0.0713,-1.38794 -0.60478,-2.06394 -0.67594,-0.676 -3.0961,-1.24521 -3.13143,-2.9887 -0.0358,-1.74288 0.81854,-3.59414 0.81854,-3.59414 0,0 1.13892,0.96095 2.41977,0.99645 1.281,0.0358 1.84977,-1.06762 2.06329,-1.31709 0.13344,-0.15553 0.51709,-0.36617 1.25517,-0.36365 z"
     inkscape:export-filename="D:\Work In Progress\Chrome Extension\Dogly\images\48.png"
     inkscape:export-xdpi="96"
     inkscape:export-ydpi="96" />
  <path
     id="path869-3"
     style="overflow:hidden;fill:#ff0000;fill-rule:evenodd;stroke-width:0.21968"
     inkscape:transform-center-x="-0.25189382"
     inkscape:transform-center-y="-1.3710064"
     d="m 354.64993,227.49181 -11.70441,0.20595 -8.13074,8.42164 0.20638,11.70441 8.42165,8.1303 11.7044,-0.20594 8.13031,-8.42165 -0.20595,-11.7044 z m -10.12803,4.69995 c 0.29156,6.6e-4 0.66736,0.0525 1.14174,0.19308 1.26496,0.37484 1.87399,1.17106 1.92091,1.28805 0.0469,0.11709 -0.0705,0.656 -0.32823,2.01487 -0.25786,1.35869 -0.30421,2.48299 -0.30421,2.48299 -2.09667,1.07787 -3.35018,-0.0584 -3.0339,-1.88573 0.3163,-1.82731 2.35427,-2.98671 2.35427,-2.98671 0,0 -1.2651,0.35145 -2.10842,1.65147 -0.84336,1.30023 -1.01907,3.02219 0.0704,3.72469 1.08923,0.70313 2.70567,0.0352 2.70567,0.0352 0,0 1.15963,6.18446 2.70567,8.60915 1.54604,2.42451 4.39618,3.37939 5.79793,2.52975 1.15961,-0.7025 0.7382,-2.38906 -0.21068,-2.70567 -0.7196,-0.2398 -1.33524,0.38658 -1.33524,0.38658 0,0 0.035,-0.31609 0.21067,-0.52688 0.17574,-0.21058 1.0542,-1.01896 2.45982,-0.38659 1.53575,0.69102 1.98356,2.9533 -0.0352,4.14647 -0.77316,0.45644 -2.70567,0.4917 -2.70567,0.4917 l -10.50646,-0.0352 c 0,0 -0.31633,-0.42165 0.0352,-0.87829 0.21412,-0.2782 0.98384,-0.35183 0.98384,-0.35183 0,0 -0.38656,-0.45614 -0.7028,-2.00244 -0.31622,-1.54588 0.28082,-2.38954 1.47555,-2.60055 1.19467,-0.21079 2.53018,0.59769 2.53018,0.59769 0,0 -1.01884,-0.77293 -1.9325,-0.94866 -0.91356,-0.17573 -2.42493,0.10508 -2.60055,1.68622 -0.17573,1.58135 0.7028,3.02232 0.7028,3.02232 0,0 -0.35617,-0.04 -0.73799,0.31621 -0.52711,0.49192 -0.10511,1.12415 -0.10511,1.12415 h -0.98385 c 0,0 -0.56232,-0.56223 -0.0352,-1.15933 0.42858,-0.48586 0.93085,-0.28473 0.8783,-0.63243 -0.45679,-3.02184 -1.68653,-4.42748 -1.89732,-7.73043 -0.1502,-2.35378 1.73342,-3.32653 1.73342,-3.32653 0,0 0.0469,-0.91378 -0.39817,-1.35884 -0.44502,-0.44506 -2.03839,-0.81981 -2.06165,-1.96767 -0.0236,-1.14747 0.5389,-2.36629 0.5389,-2.36629 0,0 0.74984,0.63267 1.59311,0.65604 0.84338,0.0236 1.21784,-0.70289 1.35842,-0.86714 0.0879,-0.10239 0.34043,-0.24107 0.82637,-0.23941 z"
     inkscape:export-filename="D:\Work In Progress\Chrome Extension\Dogly\images\32.png"
     inkscape:export-xdpi="96"
     inkscape:export-ydpi="96" />
  <path
     id="path869-3-6"
     style="overflow:hidden;fill:#ff0000;fill-rule:evenodd;stroke-width:0.143685"
     inkscape:transform-center-x="-0.16475446"
     inkscape:transform-center-y="-0.89672491"
     d="m 337.44977,266.38424 -7.65543,0.1347 -5.31802,5.50829 0.13499,7.65542 5.50829,5.31774 7.65542,-0.1347 5.31774,-5.50829 -0.13471,-7.65542 z m -6.62438,3.07406 c 0.1907,4.4e-4 0.4365,0.0343 0.74677,0.12629 0.82737,0.24517 1.22571,0.76595 1.2564,0.84247 0.0307,0.0766 -0.0461,0.42906 -0.21468,1.31785 -0.16866,0.88867 -0.19898,1.62403 -0.19898,1.62403 -1.37135,0.705 -2.19123,-0.0382 -1.98436,-1.23338 0.20688,-1.19518 1.53984,-1.9535 1.53984,-1.9535 0,0 -0.82745,0.22987 -1.37904,1.08016 -0.55161,0.85044 -0.66653,1.97671 0.046,2.43619 0.71242,0.45989 1.76968,0.023 1.76968,0.023 0,0 0.75847,4.04503 1.76968,5.63093 1.01121,1.58578 2.87538,2.21033 3.79221,1.65461 0.75846,-0.45948 0.48283,-1.56259 -0.1378,-1.76968 -0.47066,-0.15684 -0.87333,0.25285 -0.87333,0.25285 0,0 0.0229,-0.20674 0.13779,-0.34461 0.11495,-0.13773 0.68952,-0.66647 1.60888,-0.25286 1.00448,0.45197 1.29737,1.93165 -0.023,2.71206 -0.50569,0.29854 -1.76968,0.3216 -1.76968,0.3216 l -6.87189,-0.023 c 0,0 -0.2069,-0.27579 0.023,-0.57446 0.14005,-0.18196 0.6435,-0.23012 0.6435,-0.23012 0,0 -0.25284,-0.29834 -0.45968,-1.30972 -0.20683,-1.0111 0.18368,-1.56291 0.96511,-1.70092 0.78138,-0.13787 1.65489,0.39092 1.65489,0.39092 0,0 -0.66638,-0.50554 -1.26397,-0.62048 -0.59753,-0.11494 -1.58606,0.0687 -1.70093,1.1029 -0.11494,1.0343 0.45968,1.97678 0.45968,1.97678 0,0 -0.23296,-0.0262 -0.48269,0.20683 -0.34477,0.32174 -0.0688,0.73526 -0.0688,0.73526 h -0.64351 c 0,0 -0.36779,-0.36773 -0.023,-0.75827 0.28032,-0.31779 0.60884,-0.18624 0.57446,-0.41365 -0.29877,-1.97648 -1.10309,-2.89586 -1.24096,-5.05619 -0.0982,-1.53953 1.13376,-2.17577 1.13376,-2.17577 0,0 0.0307,-0.59767 -0.26043,-0.88876 -0.29107,-0.2911 -1.33323,-0.53621 -1.34844,-1.28698 -0.0154,-0.75052 0.35247,-1.54771 0.35247,-1.54771 0,0 0.49044,0.41381 1.04199,0.42909 0.55163,0.0154 0.79655,-0.45973 0.8885,-0.56716 0.0575,-0.067 0.22266,-0.15767 0.5405,-0.15659 z"
     inkscape:export-filename="D:\Work In Progress\Chrome Extension\Dogly\images\16.png"
     inkscape:export-xdpi="96"
     inkscape:export-ydpi="96" />
  <path
     id="path869-1"
     style="overflow:hidden;fill:#ff0000;fill-rule:evenodd;stroke-width:0.903273"
     inkscape:transform-center-x="-1.0357292"
     inkscape:transform-center-y="-5.6372602"
     d="m 419.8915,18.069905 -48.12578,0.846819 -33.43171,34.627842 0.84858,48.125784 34.62784,33.42995 48.12579,-0.84683 33.42993,-34.627836 -0.84681,-48.125783 z m -41.64409,19.325117 c 1.19882,0.0041 2.74403,0.215921 4.69455,0.793893 5.20123,1.541256 7.70545,4.815138 7.89836,5.296146 0.19263,0.48145 -0.29,2.697328 -1.34962,8.284713 -1.06024,5.586581 -1.25082,10.209463 -1.25082,10.209463 -8.62105,4.43193 -13.77519,-0.240226 -12.47471,-7.753687 1.30058,-7.513463 9.6802,-12.28064 9.6802,-12.28064 0,0 -5.20179,1.445062 -8.66931,6.79043 -3.46769,5.346256 -4.1902,12.426534 0.28933,15.315076 4.47865,2.89112 11.12509,0.144664 11.12509,0.144664 0,0 4.76814,25.429052 11.12508,35.398804 6.35695,9.969036 18.07606,13.895286 23.83972,10.401756 4.7681,-2.88854 3.03532,-9.82327 -0.86622,-11.125081 -2.95888,-0.986003 -5.49021,1.589541 -5.49021,1.589541 0,0 0.14365,-1.299716 0.86622,-2.166443 0.72259,-0.865833 4.33462,-4.18972 10.1142,-1.589545 6.31464,2.841292 8.15593,12.143288 -0.14467,17.049288 -3.17904,1.87679 -11.12508,2.02179 -11.12508,2.02179 l -43.20012,-0.14468 c 0,0 -1.30068,-1.73373 0.14466,-3.61132 0.8804,-1.14391 4.04533,-1.44666 4.04533,-1.44666 0,0 -1.58947,-1.87553 -2.88977,-8.23354 -1.30022,-6.356331 1.1547,-9.825256 6.0671,-10.692859 4.91223,-0.866727 10.40353,2.457539 10.40353,2.457539 0,0 -4.18921,-3.178084 -7.94599,-3.90066 -3.75633,-0.722579 -9.97071,0.432072 -10.69285,6.933328 -0.72258,6.502152 2.88977,12.427072 2.88977,12.427072 0,0 -1.46449,-0.16465 -3.03444,1.30022 -2.16738,2.02262 -0.43223,4.62223 -0.43223,4.62223 h -4.04532 c 0,0 -2.31214,-2.31175 -0.14467,-4.7669 1.76223,-1.99775 3.82741,-1.17072 3.61133,-2.60043 -1.87821,-12.425067 -6.93459,-18.20474 -7.80132,-31.78571 -0.6176,-9.678185 7.1274,-13.677892 7.1274,-13.677892 0,0 0.19298,-3.757256 -1.63719,-5.587241 -1.82981,-1.829986 -8.38136,-3.370879 -8.47701,-8.09065 -0.097,-4.718087 2.21584,-9.729599 2.21584,-9.729599 0,0 3.08317,2.601376 6.5505,2.697472 3.46779,0.09699 5.00749,-2.89013 5.58548,-3.565461 0.36125,-0.421027 1.39983,-0.991249 3.39786,-0.984427 z"
     inkscape:export-filename="D:\Work In Progress\Chrome Extension\Dogly\images\128.png"
     inkscape:export-xdpi="96"
     inkscape:export-ydpi="96" />
</svg>
